<mxfile host="Electron" modified="2024-02-20T07:52:02.311Z" agent="Mozilla/5.0 (Windows NT 10.0; Win64; x64) AppleWebKit/537.36 (KHTML, like Gecko) draw.io/23.1.5 Chrome/120.0.6099.109 Electron/28.1.0 Safari/537.36" etag="2qhmNmBWc_HZgVnrUBsj" version="23.1.5" type="device">
  <diagram name="페이지-1" id="Msii8k9ikyRuZodO5oZb">
    <mxGraphModel dx="1408" dy="2125" grid="1" gridSize="10" guides="1" tooltips="1" connect="1" arrows="1" fold="1" page="1" pageScale="1" pageWidth="827" pageHeight="1169" math="0" shadow="0">
      <root>
        <mxCell id="0" />
        <mxCell id="1" parent="0" />
        <mxCell id="iN2O81IByHYmm9D0Pxqd-68" value="버튜버 기준" style="ellipse;shape=cloud;whiteSpace=wrap;html=1;align=left;verticalAlign=top;" vertex="1" parent="1">
          <mxGeometry x="1950" y="860" width="220" height="130" as="geometry" />
        </mxCell>
        <mxCell id="iN2O81IByHYmm9D0Pxqd-30" style="edgeStyle=orthogonalEdgeStyle;rounded=0;orthogonalLoop=1;jettySize=auto;html=1;exitX=1;exitY=0.5;exitDx=0;exitDy=0;entryX=0.07;entryY=0.4;entryDx=0;entryDy=0;entryPerimeter=0;" edge="1" parent="1" source="iN2O81IByHYmm9D0Pxqd-23" target="iN2O81IByHYmm9D0Pxqd-65">
          <mxGeometry relative="1" as="geometry">
            <mxPoint x="1654" y="460" as="targetPoint" />
          </mxGeometry>
        </mxCell>
        <mxCell id="iN2O81IByHYmm9D0Pxqd-23" value="온보딩" style="rounded=0;whiteSpace=wrap;html=1;align=left;verticalAlign=top;" vertex="1" parent="1">
          <mxGeometry x="510" y="60" width="1040" height="350" as="geometry" />
        </mxCell>
        <mxCell id="iN2O81IByHYmm9D0Pxqd-17" style="edgeStyle=orthogonalEdgeStyle;rounded=0;orthogonalLoop=1;jettySize=auto;html=1;exitX=1;exitY=0.5;exitDx=0;exitDy=0;entryX=0;entryY=0.5;entryDx=0;entryDy=0;" edge="1" parent="1" source="rg4S-vM8xS86Sa5-nS0K-1" target="iN2O81IByHYmm9D0Pxqd-23">
          <mxGeometry relative="1" as="geometry" />
        </mxCell>
        <mxCell id="rg4S-vM8xS86Sa5-nS0K-1" value="프로그램 실행" style="rounded=0;whiteSpace=wrap;html=1;" parent="1" vertex="1">
          <mxGeometry x="320" y="360" width="120" height="60" as="geometry" />
        </mxCell>
        <mxCell id="iN2O81IByHYmm9D0Pxqd-32" style="edgeStyle=orthogonalEdgeStyle;rounded=0;orthogonalLoop=1;jettySize=auto;html=1;exitX=1;exitY=0.5;exitDx=0;exitDy=0;entryX=0;entryY=0.5;entryDx=0;entryDy=0;" edge="1" parent="1" source="iN2O81IByHYmm9D0Pxqd-1" target="iN2O81IByHYmm9D0Pxqd-2">
          <mxGeometry relative="1" as="geometry" />
        </mxCell>
        <mxCell id="iN2O81IByHYmm9D0Pxqd-1" value="홈페이지 접근" style="rounded=0;whiteSpace=wrap;html=1;" vertex="1" parent="1">
          <mxGeometry x="160" y="440" width="120" height="60" as="geometry" />
        </mxCell>
        <mxCell id="iN2O81IByHYmm9D0Pxqd-31" style="edgeStyle=orthogonalEdgeStyle;rounded=0;orthogonalLoop=1;jettySize=auto;html=1;exitX=1;exitY=0.5;exitDx=0;exitDy=0;entryX=0.07;entryY=0.4;entryDx=0;entryDy=0;entryPerimeter=0;" edge="1" parent="1" source="iN2O81IByHYmm9D0Pxqd-2" target="iN2O81IByHYmm9D0Pxqd-65">
          <mxGeometry relative="1" as="geometry">
            <mxPoint x="1660.4499999999998" y="460" as="targetPoint" />
          </mxGeometry>
        </mxCell>
        <mxCell id="iN2O81IByHYmm9D0Pxqd-2" value="프로그램 실행" style="rounded=0;whiteSpace=wrap;html=1;" vertex="1" parent="1">
          <mxGeometry x="320" y="440" width="120" height="60" as="geometry" />
        </mxCell>
        <mxCell id="iN2O81IByHYmm9D0Pxqd-3" value="로그인 창/가입창" style="rounded=0;whiteSpace=wrap;html=1;" vertex="1" parent="1">
          <mxGeometry x="520" y="220" width="120" height="60" as="geometry" />
        </mxCell>
        <mxCell id="iN2O81IByHYmm9D0Pxqd-28" style="edgeStyle=orthogonalEdgeStyle;rounded=0;orthogonalLoop=1;jettySize=auto;html=1;exitX=1;exitY=0.5;exitDx=0;exitDy=0;entryX=0;entryY=0.5;entryDx=0;entryDy=0;" edge="1" parent="1" source="iN2O81IByHYmm9D0Pxqd-4" target="iN2O81IByHYmm9D0Pxqd-26">
          <mxGeometry relative="1" as="geometry" />
        </mxCell>
        <mxCell id="iN2O81IByHYmm9D0Pxqd-4" value="일반 로그인" style="rounded=0;whiteSpace=wrap;html=1;" vertex="1" parent="1">
          <mxGeometry x="1230" y="230" width="120" height="60" as="geometry" />
        </mxCell>
        <mxCell id="iN2O81IByHYmm9D0Pxqd-29" style="edgeStyle=orthogonalEdgeStyle;rounded=0;orthogonalLoop=1;jettySize=auto;html=1;exitX=1;exitY=0.5;exitDx=0;exitDy=0;entryX=0.5;entryY=1;entryDx=0;entryDy=0;" edge="1" parent="1" source="iN2O81IByHYmm9D0Pxqd-5" target="iN2O81IByHYmm9D0Pxqd-26">
          <mxGeometry relative="1" as="geometry" />
        </mxCell>
        <mxCell id="iN2O81IByHYmm9D0Pxqd-5" value="소셜 로그인" style="rounded=0;whiteSpace=wrap;html=1;" vertex="1" parent="1">
          <mxGeometry x="1230" y="300" width="120" height="60" as="geometry" />
        </mxCell>
        <mxCell id="iN2O81IByHYmm9D0Pxqd-6" value="회원가입창" style="rounded=0;whiteSpace=wrap;html=1;" vertex="1" parent="1">
          <mxGeometry x="690" y="105" width="120" height="60" as="geometry" />
        </mxCell>
        <mxCell id="iN2O81IByHYmm9D0Pxqd-11" style="edgeStyle=orthogonalEdgeStyle;rounded=0;orthogonalLoop=1;jettySize=auto;html=1;exitX=1;exitY=0.25;exitDx=0;exitDy=0;entryX=0;entryY=0.5;entryDx=0;entryDy=0;" edge="1" parent="1" source="iN2O81IByHYmm9D0Pxqd-3" target="iN2O81IByHYmm9D0Pxqd-6">
          <mxGeometry relative="1" as="geometry" />
        </mxCell>
        <mxCell id="iN2O81IByHYmm9D0Pxqd-18" style="edgeStyle=orthogonalEdgeStyle;rounded=0;orthogonalLoop=1;jettySize=auto;html=1;exitX=1;exitY=0.25;exitDx=0;exitDy=0;entryX=0;entryY=0.5;entryDx=0;entryDy=0;" edge="1" parent="1" source="iN2O81IByHYmm9D0Pxqd-7" target="iN2O81IByHYmm9D0Pxqd-4">
          <mxGeometry relative="1" as="geometry" />
        </mxCell>
        <mxCell id="iN2O81IByHYmm9D0Pxqd-19" style="edgeStyle=orthogonalEdgeStyle;rounded=0;orthogonalLoop=1;jettySize=auto;html=1;exitX=1;exitY=0.75;exitDx=0;exitDy=0;entryX=0;entryY=0.5;entryDx=0;entryDy=0;" edge="1" parent="1" source="iN2O81IByHYmm9D0Pxqd-7" target="iN2O81IByHYmm9D0Pxqd-5">
          <mxGeometry relative="1" as="geometry" />
        </mxCell>
        <mxCell id="iN2O81IByHYmm9D0Pxqd-7" value="로그인" style="rounded=0;whiteSpace=wrap;html=1;" vertex="1" parent="1">
          <mxGeometry x="1050" y="265" width="120" height="60" as="geometry" />
        </mxCell>
        <mxCell id="iN2O81IByHYmm9D0Pxqd-14" style="edgeStyle=orthogonalEdgeStyle;rounded=0;orthogonalLoop=1;jettySize=auto;html=1;exitX=1;exitY=0.75;exitDx=0;exitDy=0;entryX=0;entryY=0.75;entryDx=0;entryDy=0;" edge="1" parent="1" source="iN2O81IByHYmm9D0Pxqd-3" target="iN2O81IByHYmm9D0Pxqd-7">
          <mxGeometry relative="1" as="geometry" />
        </mxCell>
        <mxCell id="iN2O81IByHYmm9D0Pxqd-15" style="edgeStyle=orthogonalEdgeStyle;rounded=0;orthogonalLoop=1;jettySize=auto;html=1;exitX=1;exitY=0.5;exitDx=0;exitDy=0;entryX=0;entryY=0.5;entryDx=0;entryDy=0;" edge="1" parent="1" source="iN2O81IByHYmm9D0Pxqd-8" target="iN2O81IByHYmm9D0Pxqd-7">
          <mxGeometry relative="1" as="geometry" />
        </mxCell>
        <mxCell id="iN2O81IByHYmm9D0Pxqd-8" value="일반회원가입" style="rounded=0;whiteSpace=wrap;html=1;" vertex="1" parent="1">
          <mxGeometry x="850" y="79" width="120" height="60" as="geometry" />
        </mxCell>
        <mxCell id="iN2O81IByHYmm9D0Pxqd-12" style="edgeStyle=orthogonalEdgeStyle;rounded=0;orthogonalLoop=1;jettySize=auto;html=1;exitX=1;exitY=0.25;exitDx=0;exitDy=0;entryX=0;entryY=0.5;entryDx=0;entryDy=0;" edge="1" parent="1" source="iN2O81IByHYmm9D0Pxqd-6" target="iN2O81IByHYmm9D0Pxqd-8">
          <mxGeometry relative="1" as="geometry" />
        </mxCell>
        <mxCell id="iN2O81IByHYmm9D0Pxqd-16" style="edgeStyle=orthogonalEdgeStyle;rounded=0;orthogonalLoop=1;jettySize=auto;html=1;exitX=1;exitY=0.5;exitDx=0;exitDy=0;entryX=0;entryY=0.5;entryDx=0;entryDy=0;" edge="1" parent="1" source="iN2O81IByHYmm9D0Pxqd-9" target="iN2O81IByHYmm9D0Pxqd-7">
          <mxGeometry relative="1" as="geometry">
            <mxPoint x="1040" y="295" as="targetPoint" />
            <Array as="points">
              <mxPoint x="1010" y="165" />
              <mxPoint x="1010" y="295" />
            </Array>
          </mxGeometry>
        </mxCell>
        <mxCell id="iN2O81IByHYmm9D0Pxqd-9" value="소셜회원가입" style="rounded=0;whiteSpace=wrap;html=1;" vertex="1" parent="1">
          <mxGeometry x="850" y="149" width="120" height="60" as="geometry" />
        </mxCell>
        <mxCell id="iN2O81IByHYmm9D0Pxqd-13" style="edgeStyle=orthogonalEdgeStyle;rounded=0;orthogonalLoop=1;jettySize=auto;html=1;exitX=1;exitY=0.75;exitDx=0;exitDy=0;entryX=0;entryY=0.5;entryDx=0;entryDy=0;" edge="1" parent="1" source="iN2O81IByHYmm9D0Pxqd-6" target="iN2O81IByHYmm9D0Pxqd-9">
          <mxGeometry relative="1" as="geometry" />
        </mxCell>
        <mxCell id="iN2O81IByHYmm9D0Pxqd-25" style="edgeStyle=orthogonalEdgeStyle;rounded=0;orthogonalLoop=1;jettySize=auto;html=1;exitX=0.5;exitY=1;exitDx=0;exitDy=0;" edge="1" parent="1" source="iN2O81IByHYmm9D0Pxqd-24" target="iN2O81IByHYmm9D0Pxqd-3">
          <mxGeometry relative="1" as="geometry" />
        </mxCell>
        <mxCell id="iN2O81IByHYmm9D0Pxqd-24" value="in" style="ellipse;whiteSpace=wrap;html=1;" vertex="1" parent="1">
          <mxGeometry x="520" y="110" width="120" height="80" as="geometry" />
        </mxCell>
        <mxCell id="iN2O81IByHYmm9D0Pxqd-26" value="out" style="ellipse;whiteSpace=wrap;html=1;" vertex="1" parent="1">
          <mxGeometry x="1420" y="220" width="120" height="80" as="geometry" />
        </mxCell>
        <mxCell id="iN2O81IByHYmm9D0Pxqd-54" style="edgeStyle=orthogonalEdgeStyle;rounded=0;orthogonalLoop=1;jettySize=auto;html=1;exitX=1;exitY=0.5;exitDx=0;exitDy=0;entryX=0;entryY=0.5;entryDx=0;entryDy=0;" edge="1" parent="1" source="iN2O81IByHYmm9D0Pxqd-43" target="iN2O81IByHYmm9D0Pxqd-50">
          <mxGeometry relative="1" as="geometry" />
        </mxCell>
        <mxCell id="iN2O81IByHYmm9D0Pxqd-55" style="edgeStyle=orthogonalEdgeStyle;rounded=0;orthogonalLoop=1;jettySize=auto;html=1;exitX=1;exitY=0.5;exitDx=0;exitDy=0;entryX=0;entryY=0.5;entryDx=0;entryDy=0;" edge="1" parent="1" source="iN2O81IByHYmm9D0Pxqd-43" target="iN2O81IByHYmm9D0Pxqd-49">
          <mxGeometry relative="1" as="geometry" />
        </mxCell>
        <mxCell id="iN2O81IByHYmm9D0Pxqd-56" style="edgeStyle=orthogonalEdgeStyle;rounded=0;orthogonalLoop=1;jettySize=auto;html=1;exitX=1;exitY=0.5;exitDx=0;exitDy=0;entryX=0;entryY=0.5;entryDx=0;entryDy=0;" edge="1" parent="1" source="iN2O81IByHYmm9D0Pxqd-43" target="iN2O81IByHYmm9D0Pxqd-47">
          <mxGeometry relative="1" as="geometry" />
        </mxCell>
        <mxCell id="iN2O81IByHYmm9D0Pxqd-57" style="edgeStyle=orthogonalEdgeStyle;rounded=0;orthogonalLoop=1;jettySize=auto;html=1;exitX=1;exitY=0.5;exitDx=0;exitDy=0;" edge="1" parent="1" source="iN2O81IByHYmm9D0Pxqd-51" target="iN2O81IByHYmm9D0Pxqd-46">
          <mxGeometry relative="1" as="geometry" />
        </mxCell>
        <mxCell id="iN2O81IByHYmm9D0Pxqd-58" style="edgeStyle=orthogonalEdgeStyle;rounded=0;orthogonalLoop=1;jettySize=auto;html=1;exitX=1;exitY=0.5;exitDx=0;exitDy=0;entryX=0;entryY=0.5;entryDx=0;entryDy=0;" edge="1" parent="1" source="iN2O81IByHYmm9D0Pxqd-43" target="iN2O81IByHYmm9D0Pxqd-48">
          <mxGeometry relative="1" as="geometry" />
        </mxCell>
        <mxCell id="iN2O81IByHYmm9D0Pxqd-59" style="edgeStyle=orthogonalEdgeStyle;rounded=0;orthogonalLoop=1;jettySize=auto;html=1;exitX=1;exitY=0.5;exitDx=0;exitDy=0;entryX=0;entryY=0.5;entryDx=0;entryDy=0;" edge="1" parent="1" source="iN2O81IByHYmm9D0Pxqd-43" target="iN2O81IByHYmm9D0Pxqd-51">
          <mxGeometry relative="1" as="geometry" />
        </mxCell>
        <mxCell id="iN2O81IByHYmm9D0Pxqd-60" style="edgeStyle=orthogonalEdgeStyle;rounded=0;orthogonalLoop=1;jettySize=auto;html=1;exitX=1;exitY=0.5;exitDx=0;exitDy=0;entryX=0;entryY=0.5;entryDx=0;entryDy=0;" edge="1" parent="1" source="iN2O81IByHYmm9D0Pxqd-43" target="iN2O81IByHYmm9D0Pxqd-52">
          <mxGeometry relative="1" as="geometry" />
        </mxCell>
        <mxCell id="iN2O81IByHYmm9D0Pxqd-74" style="edgeStyle=orthogonalEdgeStyle;rounded=0;orthogonalLoop=1;jettySize=auto;html=1;exitX=1;exitY=0.5;exitDx=0;exitDy=0;entryX=0;entryY=0.5;entryDx=0;entryDy=0;" edge="1" parent="1" source="iN2O81IByHYmm9D0Pxqd-43" target="iN2O81IByHYmm9D0Pxqd-71">
          <mxGeometry relative="1" as="geometry" />
        </mxCell>
        <mxCell id="iN2O81IByHYmm9D0Pxqd-77" style="edgeStyle=orthogonalEdgeStyle;rounded=0;orthogonalLoop=1;jettySize=auto;html=1;exitX=1;exitY=0.5;exitDx=0;exitDy=0;entryX=0;entryY=0.5;entryDx=0;entryDy=0;" edge="1" parent="1" source="iN2O81IByHYmm9D0Pxqd-43" target="iN2O81IByHYmm9D0Pxqd-75">
          <mxGeometry relative="1" as="geometry" />
        </mxCell>
        <mxCell id="iN2O81IByHYmm9D0Pxqd-78" style="edgeStyle=orthogonalEdgeStyle;rounded=0;orthogonalLoop=1;jettySize=auto;html=1;exitX=1;exitY=0.5;exitDx=0;exitDy=0;entryX=0;entryY=0.5;entryDx=0;entryDy=0;" edge="1" parent="1" source="iN2O81IByHYmm9D0Pxqd-43" target="iN2O81IByHYmm9D0Pxqd-76">
          <mxGeometry relative="1" as="geometry" />
        </mxCell>
        <mxCell id="iN2O81IByHYmm9D0Pxqd-84" style="edgeStyle=orthogonalEdgeStyle;rounded=0;orthogonalLoop=1;jettySize=auto;html=1;exitX=1;exitY=0.5;exitDx=0;exitDy=0;entryX=0;entryY=0.5;entryDx=0;entryDy=0;" edge="1" parent="1" source="iN2O81IByHYmm9D0Pxqd-43" target="iN2O81IByHYmm9D0Pxqd-83">
          <mxGeometry relative="1" as="geometry" />
        </mxCell>
        <mxCell id="iN2O81IByHYmm9D0Pxqd-43" value="유저 기본(홈)화면" style="rounded=0;whiteSpace=wrap;html=1;" vertex="1" parent="1">
          <mxGeometry x="2180" y="430" width="120" height="60" as="geometry" />
        </mxCell>
        <mxCell id="iN2O81IByHYmm9D0Pxqd-46" value="층 추가 기능" style="rounded=0;whiteSpace=wrap;html=1;" vertex="1" parent="1">
          <mxGeometry x="2725" y="600" width="120" height="60" as="geometry" />
        </mxCell>
        <mxCell id="iN2O81IByHYmm9D0Pxqd-47" value="전체보기" style="rounded=0;whiteSpace=wrap;html=1;" vertex="1" parent="1">
          <mxGeometry x="2481" y="385" width="120" height="60" as="geometry" />
        </mxCell>
        <mxCell id="iN2O81IByHYmm9D0Pxqd-97" style="edgeStyle=orthogonalEdgeStyle;rounded=0;orthogonalLoop=1;jettySize=auto;html=1;exitX=1;exitY=0.5;exitDx=0;exitDy=0;entryX=0;entryY=0.5;entryDx=0;entryDy=0;" edge="1" parent="1" source="iN2O81IByHYmm9D0Pxqd-48" target="iN2O81IByHYmm9D0Pxqd-100">
          <mxGeometry relative="1" as="geometry" />
        </mxCell>
        <mxCell id="iN2O81IByHYmm9D0Pxqd-48" value="친구목록 클릭" style="rounded=0;whiteSpace=wrap;html=1;" vertex="1" parent="1">
          <mxGeometry x="2481" y="470" width="120" height="60" as="geometry" />
        </mxCell>
        <mxCell id="iN2O81IByHYmm9D0Pxqd-49" value="캡처 클릭" style="rounded=0;whiteSpace=wrap;html=1;" vertex="1" parent="1">
          <mxGeometry x="2481" y="305" width="120" height="60" as="geometry" />
        </mxCell>
        <mxCell id="iN2O81IByHYmm9D0Pxqd-87" style="edgeStyle=orthogonalEdgeStyle;rounded=0;orthogonalLoop=1;jettySize=auto;html=1;exitX=1;exitY=0.5;exitDx=0;exitDy=0;entryX=0.5;entryY=1;entryDx=0;entryDy=0;" edge="1" parent="1" source="iN2O81IByHYmm9D0Pxqd-50" target="iN2O81IByHYmm9D0Pxqd-83">
          <mxGeometry relative="1" as="geometry" />
        </mxCell>
        <mxCell id="iN2O81IByHYmm9D0Pxqd-50" value="마이페이지" style="rounded=0;whiteSpace=wrap;html=1;" vertex="1" parent="1">
          <mxGeometry x="2481" y="230" width="120" height="60" as="geometry" />
        </mxCell>
        <mxCell id="iN2O81IByHYmm9D0Pxqd-90" style="edgeStyle=orthogonalEdgeStyle;rounded=0;orthogonalLoop=1;jettySize=auto;html=1;exitX=1;exitY=0.5;exitDx=0;exitDy=0;" edge="1" parent="1" source="iN2O81IByHYmm9D0Pxqd-51" target="iN2O81IByHYmm9D0Pxqd-89">
          <mxGeometry relative="1" as="geometry" />
        </mxCell>
        <mxCell id="iN2O81IByHYmm9D0Pxqd-104" style="edgeStyle=orthogonalEdgeStyle;rounded=0;orthogonalLoop=1;jettySize=auto;html=1;exitX=1;exitY=0.5;exitDx=0;exitDy=0;entryX=0;entryY=0.5;entryDx=0;entryDy=0;" edge="1" parent="1" source="iN2O81IByHYmm9D0Pxqd-51" target="iN2O81IByHYmm9D0Pxqd-103">
          <mxGeometry relative="1" as="geometry" />
        </mxCell>
        <mxCell id="iN2O81IByHYmm9D0Pxqd-106" style="edgeStyle=orthogonalEdgeStyle;rounded=0;orthogonalLoop=1;jettySize=auto;html=1;exitX=1;exitY=0.5;exitDx=0;exitDy=0;entryX=0;entryY=0.5;entryDx=0;entryDy=0;" edge="1" parent="1" source="iN2O81IByHYmm9D0Pxqd-51" target="iN2O81IByHYmm9D0Pxqd-105">
          <mxGeometry relative="1" as="geometry" />
        </mxCell>
        <mxCell id="iN2O81IByHYmm9D0Pxqd-51" value="커스텀 모드 클릭" style="rounded=0;whiteSpace=wrap;html=1;" vertex="1" parent="1">
          <mxGeometry x="2481" y="550" width="120" height="60" as="geometry" />
        </mxCell>
        <mxCell id="iN2O81IByHYmm9D0Pxqd-52" value="비서 호출" style="rounded=0;whiteSpace=wrap;html=1;" vertex="1" parent="1">
          <mxGeometry x="2481" y="625" width="120" height="60" as="geometry" />
        </mxCell>
        <mxCell id="iN2O81IByHYmm9D0Pxqd-66" style="edgeStyle=orthogonalEdgeStyle;rounded=0;orthogonalLoop=1;jettySize=auto;html=1;exitX=0.96;exitY=0.7;exitDx=0;exitDy=0;exitPerimeter=0;entryX=0;entryY=0.5;entryDx=0;entryDy=0;" edge="1" parent="1" source="iN2O81IByHYmm9D0Pxqd-65" target="iN2O81IByHYmm9D0Pxqd-43">
          <mxGeometry relative="1" as="geometry" />
        </mxCell>
        <mxCell id="iN2O81IByHYmm9D0Pxqd-65" value="공간 픽스" style="ellipse;shape=cloud;whiteSpace=wrap;html=1;" vertex="1" parent="1">
          <mxGeometry x="1848" y="370" width="220" height="130" as="geometry" />
        </mxCell>
        <mxCell id="iN2O81IByHYmm9D0Pxqd-70" value="false" style="edgeStyle=orthogonalEdgeStyle;rounded=0;orthogonalLoop=1;jettySize=auto;html=1;exitX=0.5;exitY=1;exitDx=0;exitDy=0;" edge="1" parent="1" source="iN2O81IByHYmm9D0Pxqd-67">
          <mxGeometry relative="1" as="geometry">
            <mxPoint x="2259" y="1100" as="targetPoint" />
            <Array as="points">
              <mxPoint x="2064" y="1035" />
              <mxPoint x="2260" y="1035" />
              <mxPoint x="2260" y="1100" />
            </Array>
          </mxGeometry>
        </mxCell>
        <mxCell id="iN2O81IByHYmm9D0Pxqd-67" value="스트리밍 허가" style="rhombus;whiteSpace=wrap;html=1;" vertex="1" parent="1">
          <mxGeometry x="1989" y="890" width="150" height="80" as="geometry" />
        </mxCell>
        <mxCell id="iN2O81IByHYmm9D0Pxqd-82" style="edgeStyle=orthogonalEdgeStyle;rounded=0;orthogonalLoop=1;jettySize=auto;html=1;exitX=1;exitY=0.5;exitDx=0;exitDy=0;entryX=0;entryY=0.5;entryDx=0;entryDy=0;" edge="1" parent="1" source="iN2O81IByHYmm9D0Pxqd-71" target="iN2O81IByHYmm9D0Pxqd-72">
          <mxGeometry relative="1" as="geometry" />
        </mxCell>
        <mxCell id="iN2O81IByHYmm9D0Pxqd-71" value="층이동" style="rounded=0;whiteSpace=wrap;html=1;" vertex="1" parent="1">
          <mxGeometry x="2481" y="950" width="120" height="60" as="geometry" />
        </mxCell>
        <mxCell id="iN2O81IByHYmm9D0Pxqd-72" value="스트리밍" style="rounded=0;whiteSpace=wrap;html=1;" vertex="1" parent="1">
          <mxGeometry x="2640" y="950" width="120" height="60" as="geometry" />
        </mxCell>
        <mxCell id="iN2O81IByHYmm9D0Pxqd-81" style="edgeStyle=orthogonalEdgeStyle;rounded=0;orthogonalLoop=1;jettySize=auto;html=1;exitX=1;exitY=0.5;exitDx=0;exitDy=0;" edge="1" parent="1" source="iN2O81IByHYmm9D0Pxqd-75" target="iN2O81IByHYmm9D0Pxqd-80">
          <mxGeometry relative="1" as="geometry" />
        </mxCell>
        <mxCell id="iN2O81IByHYmm9D0Pxqd-75" value="퀘스트" style="rounded=0;whiteSpace=wrap;html=1;" vertex="1" parent="1">
          <mxGeometry x="2481" y="149" width="120" height="60" as="geometry" />
        </mxCell>
        <mxCell id="iN2O81IByHYmm9D0Pxqd-76" value="공지" style="rounded=0;whiteSpace=wrap;html=1;" vertex="1" parent="1">
          <mxGeometry x="2481" y="70" width="120" height="60" as="geometry" />
        </mxCell>
        <mxCell id="iN2O81IByHYmm9D0Pxqd-80" value="미션보상/층추가허가증" style="rounded=0;whiteSpace=wrap;html=1;" vertex="1" parent="1">
          <mxGeometry x="2780" y="120" width="350" height="60" as="geometry" />
        </mxCell>
        <mxCell id="iN2O81IByHYmm9D0Pxqd-86" style="edgeStyle=orthogonalEdgeStyle;rounded=0;orthogonalLoop=1;jettySize=auto;html=1;exitX=1;exitY=0.5;exitDx=0;exitDy=0;entryX=0;entryY=0.5;entryDx=0;entryDy=0;" edge="1" parent="1" source="iN2O81IByHYmm9D0Pxqd-83" target="iN2O81IByHYmm9D0Pxqd-85">
          <mxGeometry relative="1" as="geometry" />
        </mxCell>
        <mxCell id="iN2O81IByHYmm9D0Pxqd-83" value="게임머니&amp;nbsp;" style="rounded=0;whiteSpace=wrap;html=1;" vertex="1" parent="1">
          <mxGeometry x="2590" y="-20" width="120" height="60" as="geometry" />
        </mxCell>
        <mxCell id="iN2O81IByHYmm9D0Pxqd-85" value="충전" style="rounded=0;whiteSpace=wrap;html=1;" vertex="1" parent="1">
          <mxGeometry x="2690" y="-130" width="120" height="60" as="geometry" />
        </mxCell>
        <mxCell id="iN2O81IByHYmm9D0Pxqd-93" style="edgeStyle=orthogonalEdgeStyle;rounded=0;orthogonalLoop=1;jettySize=auto;html=1;exitX=1;exitY=0.5;exitDx=0;exitDy=0;entryX=0;entryY=0.5;entryDx=0;entryDy=0;" edge="1" parent="1" source="iN2O81IByHYmm9D0Pxqd-89" target="iN2O81IByHYmm9D0Pxqd-91">
          <mxGeometry relative="1" as="geometry">
            <mxPoint x="2895" y="490" as="targetPoint" />
          </mxGeometry>
        </mxCell>
        <mxCell id="iN2O81IByHYmm9D0Pxqd-95" style="edgeStyle=orthogonalEdgeStyle;rounded=0;orthogonalLoop=1;jettySize=auto;html=1;exitX=1;exitY=0.5;exitDx=0;exitDy=0;entryX=0;entryY=0.5;entryDx=0;entryDy=0;" edge="1" parent="1" source="iN2O81IByHYmm9D0Pxqd-89" target="iN2O81IByHYmm9D0Pxqd-92">
          <mxGeometry relative="1" as="geometry">
            <mxPoint x="2895" y="570" as="targetPoint" />
          </mxGeometry>
        </mxCell>
        <mxCell id="iN2O81IByHYmm9D0Pxqd-89" value="템플릿" style="rounded=0;whiteSpace=wrap;html=1;" vertex="1" parent="1">
          <mxGeometry x="2725" y="500" width="120" height="60" as="geometry" />
        </mxCell>
        <mxCell id="iN2O81IByHYmm9D0Pxqd-91" value="저장" style="rounded=0;whiteSpace=wrap;html=1;" vertex="1" parent="1">
          <mxGeometry x="2895" y="460" width="120" height="60" as="geometry" />
        </mxCell>
        <mxCell id="iN2O81IByHYmm9D0Pxqd-92" value="로드" style="rounded=0;whiteSpace=wrap;html=1;" vertex="1" parent="1">
          <mxGeometry x="2895" y="540" width="120" height="60" as="geometry" />
        </mxCell>
        <mxCell id="iN2O81IByHYmm9D0Pxqd-99" style="edgeStyle=orthogonalEdgeStyle;rounded=0;orthogonalLoop=1;jettySize=auto;html=1;exitX=1;exitY=0.5;exitDx=0;exitDy=0;" edge="1" parent="1" source="iN2O81IByHYmm9D0Pxqd-96" target="iN2O81IByHYmm9D0Pxqd-98">
          <mxGeometry relative="1" as="geometry" />
        </mxCell>
        <mxCell id="iN2O81IByHYmm9D0Pxqd-96" value="템플릿" style="rounded=0;whiteSpace=wrap;html=1;" vertex="1" parent="1">
          <mxGeometry x="3180" y="325" width="120" height="60" as="geometry" />
        </mxCell>
        <mxCell id="iN2O81IByHYmm9D0Pxqd-98" value="저장" style="rounded=0;whiteSpace=wrap;html=1;" vertex="1" parent="1">
          <mxGeometry x="3330" y="325" width="120" height="60" as="geometry" />
        </mxCell>
        <mxCell id="iN2O81IByHYmm9D0Pxqd-101" style="edgeStyle=orthogonalEdgeStyle;rounded=0;orthogonalLoop=1;jettySize=auto;html=1;exitX=1;exitY=0.5;exitDx=0;exitDy=0;entryX=0;entryY=0.5;entryDx=0;entryDy=0;" edge="1" parent="1" source="iN2O81IByHYmm9D0Pxqd-100" target="iN2O81IByHYmm9D0Pxqd-96">
          <mxGeometry relative="1" as="geometry" />
        </mxCell>
        <mxCell id="iN2O81IByHYmm9D0Pxqd-100" value="공개된 친구공간으로 접속" style="rounded=0;whiteSpace=wrap;html=1;" vertex="1" parent="1">
          <mxGeometry x="2810" y="325" width="120" height="60" as="geometry" />
        </mxCell>
        <mxCell id="iN2O81IByHYmm9D0Pxqd-113" style="edgeStyle=orthogonalEdgeStyle;rounded=0;orthogonalLoop=1;jettySize=auto;html=1;exitX=1;exitY=0.5;exitDx=0;exitDy=0;" edge="1" parent="1" source="iN2O81IByHYmm9D0Pxqd-103" target="iN2O81IByHYmm9D0Pxqd-111">
          <mxGeometry relative="1" as="geometry" />
        </mxCell>
        <mxCell id="iN2O81IByHYmm9D0Pxqd-114" style="edgeStyle=orthogonalEdgeStyle;rounded=0;orthogonalLoop=1;jettySize=auto;html=1;exitX=1;exitY=0.5;exitDx=0;exitDy=0;entryX=0;entryY=0.5;entryDx=0;entryDy=0;" edge="1" parent="1" source="iN2O81IByHYmm9D0Pxqd-103" target="iN2O81IByHYmm9D0Pxqd-112">
          <mxGeometry relative="1" as="geometry" />
        </mxCell>
        <mxCell id="iN2O81IByHYmm9D0Pxqd-116" style="edgeStyle=orthogonalEdgeStyle;rounded=0;orthogonalLoop=1;jettySize=auto;html=1;exitX=1;exitY=0.5;exitDx=0;exitDy=0;entryX=0;entryY=0.5;entryDx=0;entryDy=0;" edge="1" parent="1" source="iN2O81IByHYmm9D0Pxqd-103" target="iN2O81IByHYmm9D0Pxqd-115">
          <mxGeometry relative="1" as="geometry" />
        </mxCell>
        <mxCell id="iN2O81IByHYmm9D0Pxqd-103" value="아이템 배치" style="rounded=0;whiteSpace=wrap;html=1;" vertex="1" parent="1">
          <mxGeometry x="2725" y="840" width="120" height="60" as="geometry" />
        </mxCell>
        <mxCell id="iN2O81IByHYmm9D0Pxqd-108" style="edgeStyle=orthogonalEdgeStyle;rounded=0;orthogonalLoop=1;jettySize=auto;html=1;exitX=1;exitY=0.5;exitDx=0;exitDy=0;" edge="1" parent="1" source="iN2O81IByHYmm9D0Pxqd-105" target="iN2O81IByHYmm9D0Pxqd-107">
          <mxGeometry relative="1" as="geometry" />
        </mxCell>
        <mxCell id="iN2O81IByHYmm9D0Pxqd-110" style="edgeStyle=orthogonalEdgeStyle;rounded=0;orthogonalLoop=1;jettySize=auto;html=1;exitX=1;exitY=0.5;exitDx=0;exitDy=0;entryX=0;entryY=0.5;entryDx=0;entryDy=0;" edge="1" parent="1" source="iN2O81IByHYmm9D0Pxqd-105" target="iN2O81IByHYmm9D0Pxqd-109">
          <mxGeometry relative="1" as="geometry" />
        </mxCell>
        <mxCell id="iN2O81IByHYmm9D0Pxqd-105" value="공간늘리기" style="rounded=0;whiteSpace=wrap;html=1;dashed=1;" vertex="1" parent="1">
          <mxGeometry x="2725" y="680" width="120" height="60" as="geometry" />
        </mxCell>
        <mxCell id="iN2O81IByHYmm9D0Pxqd-107" value="벽높이기" style="rounded=0;whiteSpace=wrap;html=1;" vertex="1" parent="1">
          <mxGeometry x="2890" y="630" width="120" height="60" as="geometry" />
        </mxCell>
        <mxCell id="iN2O81IByHYmm9D0Pxqd-109" value="바닥 늘리기" style="rounded=0;whiteSpace=wrap;html=1;" vertex="1" parent="1">
          <mxGeometry x="2890" y="720" width="120" height="60" as="geometry" />
        </mxCell>
        <mxCell id="iN2O81IByHYmm9D0Pxqd-111" value="랜덤배치" style="rounded=0;whiteSpace=wrap;html=1;" vertex="1" parent="1">
          <mxGeometry x="3050" y="800" width="120" height="60" as="geometry" />
        </mxCell>
        <mxCell id="iN2O81IByHYmm9D0Pxqd-118" style="edgeStyle=orthogonalEdgeStyle;rounded=0;orthogonalLoop=1;jettySize=auto;html=1;exitX=1;exitY=0.5;exitDx=0;exitDy=0;entryX=0;entryY=0.5;entryDx=0;entryDy=0;" edge="1" parent="1" source="iN2O81IByHYmm9D0Pxqd-112" target="iN2O81IByHYmm9D0Pxqd-117">
          <mxGeometry relative="1" as="geometry" />
        </mxCell>
        <mxCell id="iN2O81IByHYmm9D0Pxqd-120" style="edgeStyle=orthogonalEdgeStyle;rounded=0;orthogonalLoop=1;jettySize=auto;html=1;exitX=1;exitY=0.5;exitDx=0;exitDy=0;entryX=0;entryY=0.5;entryDx=0;entryDy=0;" edge="1" parent="1" source="iN2O81IByHYmm9D0Pxqd-112" target="iN2O81IByHYmm9D0Pxqd-119">
          <mxGeometry relative="1" as="geometry" />
        </mxCell>
        <mxCell id="iN2O81IByHYmm9D0Pxqd-122" style="edgeStyle=orthogonalEdgeStyle;rounded=0;orthogonalLoop=1;jettySize=auto;html=1;exitX=1;exitY=0.5;exitDx=0;exitDy=0;entryX=0;entryY=0.5;entryDx=0;entryDy=0;" edge="1" parent="1" source="iN2O81IByHYmm9D0Pxqd-112" target="iN2O81IByHYmm9D0Pxqd-121">
          <mxGeometry relative="1" as="geometry" />
        </mxCell>
        <mxCell id="iN2O81IByHYmm9D0Pxqd-112" value="배치창" style="rounded=0;whiteSpace=wrap;html=1;" vertex="1" parent="1">
          <mxGeometry x="3050" y="880" width="120" height="60" as="geometry" />
        </mxCell>
        <mxCell id="iN2O81IByHYmm9D0Pxqd-115" value="층공개여부" style="rounded=0;whiteSpace=wrap;html=1;" vertex="1" parent="1">
          <mxGeometry x="3050" y="970" width="120" height="60" as="geometry" />
        </mxCell>
        <mxCell id="iN2O81IByHYmm9D0Pxqd-117" value="&lt;br&gt;인벤토리" style="rounded=0;whiteSpace=wrap;html=1;" vertex="1" parent="1">
          <mxGeometry x="3210" y="840" width="120" height="60" as="geometry" />
        </mxCell>
        <mxCell id="iN2O81IByHYmm9D0Pxqd-119" value="구매창" style="rounded=0;whiteSpace=wrap;html=1;" vertex="1" parent="1">
          <mxGeometry x="3210" y="920" width="120" height="60" as="geometry" />
        </mxCell>
        <mxCell id="iN2O81IByHYmm9D0Pxqd-121" value="보유 템플릿창?" style="rounded=0;whiteSpace=wrap;html=1;" vertex="1" parent="1">
          <mxGeometry x="3210" y="1010" width="120" height="60" as="geometry" />
        </mxCell>
      </root>
    </mxGraphModel>
  </diagram>
</mxfile>
